<svg width="262" height="261" viewBox="0 0 262 261" fill="none" xmlns="http://www.w3.org/2000/svg">
<path d="M128.089 0L261.353 61.258H0L128.089 0Z" fill="black"/>
<path d="M243.562 67.9355H16.1719V90H243.562V67.9355Z" fill="black"/>
<path d="M243.563 97.8389H224.155V204.968H243.563V97.8389Z" fill="black"/>
<path d="M201.836 97.8389H182.429V204.968H201.836V97.8389Z" fill="black"/>
<path d="M160.434 97.8389H141.026V204.968H160.434V97.8389Z" fill="black"/>
<path d="M118.708 97.8389H99.3008V204.968H118.708V97.8389Z" fill="black"/>
<path d="M76.9826 97.8389H57.5752V204.968H76.9826V97.8389Z" fill="black"/>
<path d="M35.256 97.8389H15.8486V204.968H35.256V97.8389Z" fill="black"/>
<path d="M218.009 261H248.09V211.064H218.009V261Z" fill="black"/>
<path d="M10.0264 261H40.1078V211.064H10.0264V261Z" fill="black"/>
<path d="M47.8721 229.355H210.894V221.806H47.8721V229.355Z" fill="black"/>
<path d="M47.8721 239.806H210.894V232.258H47.8721V239.806Z" fill="black"/>
<path d="M47.8721 218.903H210.894V211.355H47.8721V218.903Z" fill="black"/>
<path d="M47.8721 250.548H210.894V243H47.8721V250.548Z" fill="black"/>
<path d="M47.8721 261H210.894V253.452H47.8721V261Z" fill="black"/>
</svg>
